<svg version="1.2" xmlns="http://www.w3.org/2000/svg" viewBox="0 0 123 96" width="123" height="96">
	<title>three-horizontal-lines-icon-svg</title>
	<style>
		.s0 { fill: #ffffff } 
	</style>
	<g id="Layer">
		<path id="Layer" fill-rule="evenodd" class="s0" d="m8.9 0h105c5 0 9 4 9 8.9 0 5-4 9-9 9h-105c-4.9 0-8.9-4-8.9-9 0-4.9 4-8.9 8.9-8.9zm0 78.1h105c5 0 9 4 9 8.9 0 4.9-4 8.9-9 8.9h-105c-4.9 0.1-8.9-4-8.9-8.9 0-4.9 4-8.9 8.9-8.9zm0-39.1h105c5 0 9 4.1 9 9 0 4.9-4 8.9-9 8.9h-105c-4.9 0-8.9-4-8.9-8.9 0-4.9 4-9 8.9-9z"/>
	</g>
</svg>