<svg version="1.2" xmlns="http://www.w3.org/2000/svg" viewBox="0 0 640 640" width="640" height="640">
	<title>twitter-icon-svg</title>
	<style>
		.s0 { fill: #ffffff } 
	</style>
	<path id="Layer" fill-rule="evenodd" class="s0" d="m640 121.5c-23.5 10.5-48.9 17.5-75.3 20.6 27.1-16.2 47.8-41.9 57.7-72.6-25.3 15-53.5 26-83.3 31.9-24-25.5-58.1-41.4-95.9-41.4-72.5 0-131.2 58.8-131.2 131.2 0 10.3 1.1 20.3 3.4 29.9-109.1-5.5-205.9-57.7-270.6-137.2q-4.4 7.5-7.7 15.5-3.3 8-5.6 16.3-2.2 8.4-3.3 17-1.2 8.6-1.2 17.2c0 45.5 23.1 85.7 58.4 109.2-21.5-0.6-41.8-6.6-59.5-16.3v1.6c0 63.6 45.2 116.7 105.3 128.7-11 3-22.6 4.7-34.6 4.7-8.5 0-16.7-0.9-24.8-2.4 16.8 52.1 65.2 90.1 122.6 91.2-45 35.3-101.5 56.2-163.1 56.2-10.6 0-21-0.6-31.3-1.8 58.2 37.3 127.2 59 201.3 59 241.4 0 373.6-200.1 373.6-373.6 0-5.8-0.2-11.3-0.4-17 25.6-18.3 47.9-41.5 65.5-67.8 0 0 0-0.1 0-0.1z"/>
</svg>