<svg width="430" height="430" viewBox="0 0 430 430" fill="none" xmlns="http://www.w3.org/2000/svg">
<path d="M215 305C210.055 305 205.222 306.466 201.111 309.213C196.999 311.96 193.795 315.865 191.903 320.433C190.011 325.001 189.516 330.027 190.48 334.877C191.445 339.726 193.826 344.181 197.322 347.677C200.819 351.174 205.273 353.555 210.123 354.519C214.972 355.484 219.999 354.989 224.567 353.097C229.135 351.204 233.039 348 235.786 343.889C238.533 339.778 240 334.944 240 330C239.992 323.372 237.356 317.017 232.669 312.33C227.982 307.643 221.628 305.007 215 305Z" fill="#F24C00"/>
<g style="mix-blend-mode:multiply" opacity="0.5">
<path d="M215 355C201.193 355 190 343.807 190 330C190 316.193 201.193 305 215 305V355Z" fill="#F24C00"/>
</g>
<path d="M31.6174 171.902C30.7063 173.235 31.0376 175.047 32.3483 175.99L61.8459 197.196C63.2342 198.194 65.1732 197.829 66.1326 196.414C98.4693 148.705 153.079 117.36 215 117.36C276.921 117.36 331.53 148.705 363.867 196.414C364.827 197.829 366.766 198.194 368.154 197.196L397.651 175.99C398.962 175.047 399.293 173.235 398.382 171.902C358.374 113.391 291.164 75 215 75C138.835 75 71.6257 113.391 31.6174 171.902Z" fill="#3A3347"/>
<path d="M337.493 219.238C338.787 218.308 339.13 216.526 338.247 215.201C311.702 175.368 266.411 149.13 215 149.13C163.589 149.13 118.298 175.368 91.7529 215.201C90.8694 216.526 91.2128 218.308 92.5064 219.238L122.008 240.447C123.427 241.467 125.41 241.061 126.364 239.597C145.237 210.633 177.886 191.489 215 191.489C252.114 191.489 284.763 210.633 303.636 239.597C304.59 241.061 306.573 241.467 307.992 240.447L337.493 219.238Z" fill="#3A3347"/>
<path d="M277.297 262.514C278.539 261.62 278.916 259.931 278.115 258.627C265.092 237.409 241.696 223.259 215 223.259C188.304 223.259 164.908 237.409 151.884 258.627C151.084 259.931 151.46 261.62 152.703 262.514L182.213 283.729C183.81 284.877 186.061 284.198 186.985 282.462C192.322 272.44 202.865 265.619 215 265.619C227.134 265.619 237.678 272.44 243.014 282.462C243.939 284.198 246.19 284.877 247.786 283.729L277.297 262.514Z" fill="#3A3347"/>
<g style="mix-blend-mode:multiply" opacity="0.5">
<path d="M215 223.259C188.304 223.259 164.908 237.409 151.884 258.627C151.084 259.931 151.46 261.62 152.703 262.514L182.213 283.729C183.81 284.877 186.061 284.198 186.985 282.462C192.322 272.44 202.865 265.619 215 265.619V223.259Z" fill="#3A3347"/>
<path d="M215 149.13V191.489C177.886 191.489 145.237 210.633 126.364 239.597C125.41 241.061 123.427 241.467 122.008 240.447L92.5064 219.238C91.2128 218.308 90.8694 216.526 91.7529 215.201C118.298 175.368 163.589 149.13 215 149.13Z" fill="#3A3347"/>
<path d="M215 75V117.36C153.079 117.36 98.4693 148.705 66.1326 196.414C65.1732 197.829 63.2342 198.194 61.8459 197.196L32.3483 175.99C31.0376 175.047 30.7063 173.235 31.6174 171.902C71.6257 113.391 138.835 75 215 75Z" fill="#3A3347"/>
</g>
</svg>
